<?xml version="1.0" standalone="yes"?>
<svg width="51" height="57">
<path style="fill:#000000; stroke:none;" d="M0 0L0 57L51 57L51 0L0 0z"/>
<path style="fill:#3a3a3a; stroke:none;" d="M24 13C1.02688 8.08843 -4.85337 47.178 19 50.787C26.7306 51.9567 32.3272 48.0081 39 45C39.7111 37.491 44.2181 30.8952 39 24C55.3638 8.83832 27.9818 -6.73241 24 13z"/>
<path style="fill:#000000; stroke:none;" d="M35 26C36.6348 23.7153 38.4274 21.463 39.7878 18.9985C48.62 2.99864 19.2968 3.27125 29.713 19.9954C31.2084 22.3965 32.8462 24.2199 35 26z"/>
<path style="fill:#3a3a3a; stroke:none;" d="M31.3179 9.03164C26.2373 12.3433 31.4479 20.6373 36.7716 17.777C43.1222 14.3649 37.234 5.17535 31.3179 9.03164z"/>
<path style="fill:#404040; stroke:none;" d="M45.3333 8.66667L45.6667 9.33333L45.3333 8.66667z"/>
<path style="fill:#000000; stroke:none;" d="M32 11C33.2183 18.309 39.309 12.2183 32 11M22 15L21 29L20 30L14 30C18.1207 36.3161 29.818 39.2117 20 47L20 48L29 47L30 46L31 46C29.945 38.6028 20.2588 30.7361 30 26L22 15z"/>
<path style="fill:#404040; stroke:none;" d="M45.3333 15.6667L45.6667 16.3333L45.3333 15.6667z"/>
<path style="fill:#000000; stroke:none;" d="M12 19L9 22L8 29L18 26L20 16L12 19z"/>
<path style="fill:#555555; stroke:none;" d="M6.66667 17.3333L7.33333 17.6667L6.66667 17.3333z"/>
<path style="fill:#404040; stroke:none;" d="M27.3333 23.6667L27.6667 24.3333L27.3333 23.6667z"/>
<path style="fill:#333333; stroke:none;" d="M43 23L45 26L43 23z"/>
<path style="fill:#555555; stroke:none;" d="M14 24L14 26L16 26L14 24z"/>
<path style="fill:#000000; stroke:none;" d="M38 25L35 32L34 32L32 27L27 30L35 43C38.0977 37.4971 39.8714 31.2173 38 25M6 31C6.45962 36.2313 7.96573 40.5324 12 44L6 31M10 31L16 41L16 47C26.1065 40.4623 16.456 35.774 10 31z"/>
<path style="fill:#555555; stroke:none;" d="M17.6667 31.3333L18.3333 31.6667L17.6667 31.3333M36.3333 31.6667L36.6667 32.3333L36.3333 31.6667z"/>
<path style="fill:#404040; stroke:none;" d="M22 32L22 36L23 36L24 32L22 32M36.3333 34.6667L36.6667 35.3333L36.3333 34.6667z"/>
<path style="fill:#555555; stroke:none;" d="M3 47L3 49L5 49L3 47M35 50L38 49L35 50M30.6667 50.3333L31.3333 50.6667L30.6667 50.3333M15.6667 51.3333L16.3333 51.6667L15.6667 51.3333z"/>
</svg>
