<?xml version="1.0" standalone="yes"?>
<svg width="61" height="50">
<path style="fill:#000000; stroke:none;" d="M0 0L0 50L61 50L61 0L0 0z"/>
<path style="fill:#404040; stroke:none;" d="M15 1L17 4L17 1L15 1z"/>
<path style="fill:#3a3a3a; stroke:none;" d="M19 13C13.1597 14.1925 12.066 17.4147 12 23C3.90184 25.4584 7 40.1053 7 47L10 47L10 26L17 26C15.0732 28.6786 14.1559 30.6482 14.0193 34C13.8969 37.0037 13.4333 41.1589 15.0278 43.8519C22.9899 57.2992 50.2775 38.1517 34 27L34 26L37 23L31 23C30.934 17.4147 29.8403 14.1925 24 13L27 2L26 1C18.8405 2.41466 13.8975 5.8161 19 13M45.1481 3.07176C39.3551 6.0873 44.1709 15.0401 49.8519 11.9529C55.6003 8.82909 50.7725 0.144043 45.1481 3.07176z"/>
<path style="fill:#555555; stroke:none;" d="M51.6667 2.33333L52.3333 2.66667L51.6667 2.33333z"/>
<path style="fill:#404040; stroke:none;" d="M39 3L40 7L41 7L39 3z"/>
<path style="fill:#000000; stroke:none;" d="M20.6026 6.15664C18.8698 7.31446 20.6642 10.0014 22.3974 8.84336C24.1302 7.68554 22.3358 4.99855 20.6026 6.15664M46.6026 6.15664C44.8698 7.31446 46.6642 10.0014 48.3974 8.84336C50.1301 7.68554 48.3358 4.99856 46.6026 6.15664z"/>
<path style="fill:#404040; stroke:none;" d="M22 6L22 9L23 9L22 6z"/>
<path style="fill:#555555; stroke:none;" d="M46 6L46 9L47 9L46 6z"/>
<path style="fill:#404040; stroke:none;" d="M54 12L56 14L56 12L54 12z"/>
<path style="fill:#000000; stroke:none;" d="M20 13L20 14L24 14L20 13z"/>
<path style="fill:#3a3a3a; stroke:none;" d="M48 17C33.1506 4.79954 40.1314 37.8616 42.8935 43.7716C44.4611 47.1257 49.473 47.8377 51.5664 44.5664C53.8999 40.9197 52.1768 36.1131 53.9691 32.2855C56.0302 27.8838 57.3885 25.0939 56.9414 20.0039C56.4058 13.9072 51.8002 12.5673 48 17z"/>
<path style="fill:#000000; stroke:none;" d="M15 17L15 23L28 23L28 21L22 21L22 18L28 18L15 17M41 17L45 44L49 44L54 17L46 21L41 17z"/>
<path style="fill:#555555; stroke:none;" d="M18 21L18 22L22 22L18 21z"/>
<path style="fill:#000000; stroke:none;" d="M24 26L25 29L26 29L27 26L24 26z"/>
<path style="fill:#555555; stroke:none;" d="M11.3333 27.6667L11.6667 28.3333L11.3333 27.6667M13.3333 27.6667L13.6667 28.3333L13.3333 27.6667z"/>
<path style="fill:#000000; stroke:none;" d="M29 29L30 35L26 33L25 33L22 35L22 29C15.012 30.1662 14.5375 43.2605 22.0193 43.9414C24.8811 44.2018 30.9494 44.9503 32.9722 42.3966C36.5519 37.8774 34.4707 29.88 29 29z"/>
<path style="fill:#555555; stroke:none;" d="M39.3333 31.6667L39.6667 32.3333L39.3333 31.6667M48.3333 33.6667L48.6667 34.3333L48.3333 33.6667M54.3333 33.6667L54.6667 34.3333L54.3333 33.6667M11.3333 39.6667L11.6667 40.3333L11.3333 39.6667M40.3333 39.6667L40.6667 40.3333L40.3333 39.6667M11 42L11 46L12 46L11 42z"/>
<path style="fill:#404040; stroke:none;" d="M40.3333 45.6667L40.6667 46.3333L40.3333 45.6667M17.6667 48.3333L18.3333 48.6667L17.6667 48.3333z"/>
</svg>
