<?xml version="1.0" standalone="yes"?>
<svg width="49" height="50">
<path style="fill:#3a3a3a; stroke:none;" d="M0 2L24 1L24 2C19.1293 2 5.35281 -0.367401 2.02778 3.74228C-3.30734 10.3364 0.999482 29.9427 1 38C1.0002 41.0656 -0.0190113 46.5565 3.3179 48.2577C6.49563 49.8778 11.543 49 15 49C19.4516 49 28.7174 50.735 32.3966 47.821C35.3435 45.487 34 38.3058 34 35C34 21.3053 35.1906 13.1985 25 3L43 7C38.0025 -2.9382 21.2808 0 12 0C8.10955 0 2.71927 -1.11187 0 2z"/>
<path style="fill:#000000; stroke:none;" d="M33 0L33 1L43 7L25 3C33.1826 14.6179 34 19.7487 34 34C34 37.5568 35.0961 43.4805 32.9722 46.5664C29.8976 51.0336 5.10243 51.0336 2.02778 46.5664C-1.40558 41.5779 1 28.9296 1 23L0 23L0 50L32 50L44 48L45 48L49 50L49 0L33 0M0 16L1 16C1 -0.582939 9.85391 2 24 2C19.8921 0.276264 4.14786 -1.11409 1.02778 2.74228C-1.3072 5.62827 0 12.4881 0 16M3 5L3 46L32 46C29.7597 36.5899 29.7597 23.4101 32 14C26.7488 13.9814 22.9364 13.8717 22 8L25 11L29 11C22.8975 2.61785 12.3179 5 3 5z"/>
<path style="fill:#3a3a3a; stroke:none;" d="M7 11L7 14L15 14L15 11L7 11M41 49L43 49C46.526 40.3451 47.0485 30.3525 46.9992 21C46.9802 17.385 46.841 11.9152 42.0247 11.5463C36.8924 11.1532 37.0134 17.5565 37.0008 21C36.9664 30.3597 37.4705 40.3365 41 49z"/>
<path style="fill:#555555; stroke:none;" d="M35 12L37 14L37 12L35 12z"/>
<path style="fill:#000000; stroke:none;" d="M43 14L43 21L44 21L43 14z"/>
<path style="fill:#3a3a3a; stroke:none;" d="M5 16L4 21L7 24L29 24C25.4495 18.5234 12.9584 21 7 21L7 20L29 20C25.3238 14.3295 11.3654 17.1818 5 16z"/>
<path style="fill:#404040; stroke:none;" d="M35.3333 23.6667L35.6667 24.3333L35.3333 23.6667z"/>
<path style="fill:#000000; stroke:none;" d="M40 24C41.5556 25.8129 42.4444 25.8129 44 24L40 24z"/>
<path style="fill:#3a3a3a; stroke:none;" d="M7 26L7 28L20 28L20 26L7 26z"/>
<path style="fill:#555555; stroke:none;" d="M35.3333 26.6667L35.6667 27.3333L35.3333 26.6667z"/>
<path style="fill:#000000; stroke:none;" d="M40 29L40 41L41 41L43 29L40 29z"/>
<path style="fill:#3a3a3a; stroke:none;" d="M9 40L14 37L14 42L15 42L26 38L17 36C15.6684 29.8174 9.63346 36.4707 9 40z"/>
<path style="fill:#404040; stroke:none;" d="M5.33333 40.6667L5.66667 41.3333L5.33333 40.6667z"/>
<path style="fill:#000000; stroke:none;" d="M41 42L41 44L43 42L41 42z"/>
<path style="fill:#555555; stroke:none;" d="M44.3333 48.6667L44.6667 49.3333L44.3333 48.6667z"/>
</svg>
