<?xml version="1.0" standalone="yes"?>
<svg width="50" height="49">
<path style="fill:#000000; stroke:none;" d="M0 0L0 6L1 6C7.23734 -1.48833 24.9291 1.98484 34 2C37.7415 2.00626 42.563 1.53535 44.821 5.22839C49.2562 12.4824 48.474 39.5206 39 41L41 46L35 48L32 42L27 45L27 27L39 34L39 26L17 26L17 33L26 33L26 36L14 35C14.4603 31.8571 13.4344 26.0666 16.3534 24.0278C22.5954 19.668 49.4339 21.545 40 34L40 35L42 38L43 38L43 12C31.6542 14.7012 14.3458 14.7012 3 12L3 38L26 38L26 41C18.5761 41 6.7314 43.3704 1 38L0 38L0 49L50 49L50 0L0 0z"/>
<path style="fill:#3a3a3a; stroke:none;" d="M26 41L26 38L3 38L3 12C13.2201 15.0209 32.7799 15.0209 43 12L43 38L42 38L40 35L40 34C42.3131 31.9787 43.2449 26.2837 40.3966 24.0278C37.2702 21.5516 17.581 21.3951 15.0525 24.5887C13.1943 26.9357 14.2309 32.1268 14 35L26 36L26 33L17 33L17 26L39 26L39 34L27 27L27 45L32 42L35 48L41 46L39 41C49.8329 40.1736 46.0005 23.0081 46 15C45.9998 11.6494 46.8801 6.3647 44.2577 3.74228C41.8071 1.29163 37.1349 2.00121 34 2C25.1048 1.99657 15.8635 1.27639 7.00386 2.05864C-2.39605 2.88861 -3.33039 32.0145 1.17901 38.5664C4.71979 43.7109 20.405 41 26 41z"/>
<path style="fill:#000000; stroke:none;" d="M3 5L3 10L43 10L43 5L3 5z"/>
<path style="fill:#3a3a3a; stroke:none;" d="M4 6L4 9L14 9L14 6L4 6z"/>
<path style="fill:#555555; stroke:none;" d="M48 13L47 16L48 13z"/>
<path style="fill:#3a3a3a; stroke:none;" d="M5 15L5 18L13 18L13 15L5 15M42 15L31 15L24 15C21.6347 15.0011 9.60017 15.9146 15.7469 20.973C21.7886 25.9449 41.7201 23.5249 42 15z"/>
<path style="fill:#000000; stroke:none;" d="M17 18L17 19L39 19L17 18z"/>
<path style="fill:#3a3a3a; stroke:none;" d="M5 23L5 26L13 26L13 23L5 23z"/>
<path style="fill:#000000; stroke:none;" d="M29 30L29 41L34 39L38 45L34 37L37 36L37 35L29 30z"/>
<path style="fill:#404040; stroke:none;" d="M4 32L4 33L7 34L7 31L4 32z"/>
<path style="fill:#000000; stroke:none;" d="M39.6667 38.3333L40.3333 38.6667L39.6667 38.3333z"/>
</svg>
