<?xml version="1.0" standalone="yes"?>
<svg width="56" height="54">
<path style="fill:#000000; stroke:none;" d="M0 0L0 54L17 52L18 52L29 53.9992L56 54L56 0L0 0z"/>
<path style="fill:#555555; stroke:none;" d="M33.3333 2.66667L33.6667 3.33333L33.3333 2.66667z"/>
<path style="fill:#3a3a3a; stroke:none;" d="M24 3C23.6054 6.03667 17.0661 9.23238 15 7L6 14L14 14L23 10C31.0952 3.16691 43.207 12.683 52 14L51 10L36 6L38 4L35 3L24 3z"/>
<path style="fill:#555555; stroke:none;" d="M46.6667 8.33333L47.3333 8.66667L46.6667 8.33333z"/>
<path style="fill:#404040; stroke:none;" d="M50.6667 8.33333L51.3333 8.66667L50.6667 8.33333z"/>
<path style="fill:#555555; stroke:none;" d="M33.6667 9.33333L34.3333 9.66667L33.6667 9.33333z"/>
<path style="fill:#3a3a3a; stroke:none;" d="M17 25L12 24C10.9291 28.4979 8.18285 46.8929 13.3179 49.1628C18.1723 51.3086 24.648 48.9177 30 51L47 49L49 37L49 36L46 24L42 25L42 13C36.8603 12.8219 21.531 10.1483 18.0278 14.6026C16.0933 17.0623 17 22.0638 17 25z"/>
<path style="fill:#000000; stroke:none;" d="M10 13L10 14L13 14L10 13z"/>
<path style="fill:#555555; stroke:none;" d="M10 14L10 15L13 15L10 14M15 16L15 19L16 19L15 16z"/>
<path style="fill:#000000; stroke:none;" d="M19 16L19 25L28 25L28 16L27 16L27 21L26 21L26 18L19 16M31 16L31 24L39 25L39 21L32 22L31 16M38.3333 16.6667L38.6667 17.3333L38.3333 16.6667M21.6667 27.3333L22.3333 27.6667L21.6667 27.3333M25 27L25 36L34 36L34 27L33 27L33 30L25 27M36.3333 27.6667L36.6667 28.3333L36.3333 27.6667M44 27C43.2315 31.6111 37.2428 30.9712 37 30L36 30L36 36L45 36L44 27M14 28L16 31L16 34L14 33C17.8058 38.8655 21.831 34.1479 22 29L14 28z"/>
<path style="fill:#555555; stroke:none;" d="M39.6667 32.3333L40.3333 32.6667L39.6667 32.3333M18 34L18 35L21 35L18 34z"/>
<path style="fill:#000000; stroke:none;" d="M14 38L14 45L15 45L17 42L14 38M33 38L29 43L29 42L31 40L27 41L27 47L34 47L34 46L32 45L33 38M36 38L36 43L37 43L36 38M44 38L38 41L36 47L45 47L43 43L43 42L44 38M25 39L25 47L26 47L25 39M21 40L18 41L18 46L16 44L14 46L14 47C17.5105 47 21.1456 47.9871 22 44L21 44L21 46L20 46L21 40z"/>
<path style="fill:#494949; stroke:none;" d="M40 45L40 46L44 44L40 45z"/>
<path style="fill:#555555; stroke:none;" d="M28 45L28 46L31 46L28 45M37.6667 45.3333L38.3333 45.6667L37.6667 45.3333M49.6667 48.3333L50.3333 48.6667L49.6667 48.3333M20.6667 51.3333L21.3333 51.6667L20.6667 51.3333M17.3333 52.6667L17.6667 53.3333L17.3333 52.6667M30.6667 52.3333L31.3333 52.6667L30.6667 52.3333M38.6667 52.3333L39.3333 52.6667L38.6667 52.3333z"/>
<path style="fill:#404040; stroke:none;" d="M36.6667 53.3333L37.3333 53.6667L36.6667 53.3333z"/>
</svg>
