<?xml version="1.0" standalone="yes"?>
<svg width="50" height="50">
<path style="fill:#000000; stroke:none;" d="M0 0L0 50L50 50L50 0L0 0z"/>
<path style="fill:#3a3a3a; stroke:none;" d="M40 36C39.8541 48.346 27.278 45 18 45C14.4969 45 8.33731 46.1305 5.60339 43.3966C0.548032 38.3412 4 17.9459 4 11L40 11L40 20C44.8815 16.8353 43.229 10.5874 38 9C40.5062 5.19411 38.5906 1.87632 33.9954 1.14815C26.8569 0.0169525 11.7707 -1.12282 5.1088 1.74228C-1.01131 4.37436 1 14.6793 1 20C1 26.6361 -1.1541 37.9699 2.17901 43.8912C5.82493 50.3681 33.7832 50.4824 39.7716 46.821C43.9324 44.277 43.7381 38.4238 40 36z"/>
<path style="fill:#000000; stroke:none;" d="M4 8L37 8L37 4C29.8801 4 6.54041 0.345795 4 8z"/>
<path style="fill:#404040; stroke:none;" d="M38 16L38 19L39 19L38 16z"/>
<path style="fill:#3a3a3a; stroke:none;" d="M25.1088 21.7423C20.3799 23.7761 19.8177 30.8462 24.2284 33.5432C28.2382 35.9951 39.5514 36.2742 43.8519 34.3966C47.8972 32.6304 48.3025 24.4436 44.6821 22.0278C41.0591 19.6102 29.0208 20.0599 25.1088 21.7423z"/>
<path style="fill:#000000; stroke:none;" d="M25 24L25 25C30.8083 25.929 30.8083 30.071 25 31L25 32L44 32L44 24L25 24M23.3333 27.6667L23.6667 28.3333L23.3333 27.6667M27.3333 27.6667L27.6667 28.3333L27.3333 27.6667z"/>
<path style="fill:#555555; stroke:none;" d="M38.6667 49.3333L39.3333 49.6667L38.6667 49.3333z"/>
</svg>
