<?xml version="1.0" standalone="yes"?>
<svg width="56" height="52">
<path style="fill:#000000; stroke:none;" d="M0 0L0 52L56 52L56 17L42 19L42 9L43 9L44 12L56 13L56 0L0 0z"/>
<path style="fill:#3a3a3a; stroke:none;" d="M21 24L21 25L16 28L15 25C12.107 25.0022 7.85706 24.3493 5.60339 26.6034C2.58077 29.6266 2.62051 43.3537 6.3179 45.821C21.0561 55.6557 34.5604 38.2909 25 25L33 25L33 26C27.876 28.2289 27.1899 40.3804 30.6389 44.75C33.7582 48.702 49.408 48.4969 52.6667 44.75C58.9082 37.5733 49.8643 16.0512 42 28L41 25L37 25C40.876 20.4168 43.8029 9.77618 39.2577 4.43364C36.4256 1.10472 29.9122 1.01489 30 6L28 2C17.1994 2.09775 10.6732 18.3056 21 24z"/>
<path style="fill:#000000; stroke:none;" d="M37 16L36 16L36 19L21 17C23.9137 12.3571 32.0269 10.972 36 15L37 15C37.957 9.74564 38.0217 5.96035 32 5L33 12L29 9L28 9L25 12L25 5C19.4927 5.91908 17.0201 17.3422 21.6034 20.9722C26.3845 24.7589 37.2141 22.6088 37 16z"/>
<path style="fill:#555555; stroke:none;" d="M34.6667 9.33333L35.3333 9.66667L34.6667 9.33333z"/>
<path style="fill:#333333; stroke:none;" d="M42 9L42 19C45.8551 19.4067 52.4116 20.5914 54.9136 16.4552C58.8258 9.98788 46.6446 11.2165 44 12L42 9z"/>
<path style="fill:#555555; stroke:none;" d="M23.3333 11.6667L23.6667 12.3333L23.3333 11.6667z"/>
<path style="fill:#404040; stroke:none;" d="M9 23L9 24L14 24L9 23z"/>
<path style="fill:#555555; stroke:none;" d="M28.6667 26.3333L29.3333 26.6667L28.6667 26.3333z"/>
<path style="fill:#000000; stroke:none;" d="M7 28C7 31.9299 5.83696 38.0922 7.60339 41.6821C9.34628 45.2241 21.6391 45.3424 23.9722 42.3966C27.4333 38.0267 25.4368 28.9073 20 28L20 34L17 32L12 34L12 28L7 28M33 28C33 31.9299 31.837 38.0922 33.6034 41.6821C35.3463 45.2241 47.6391 45.3424 49.9722 42.3966C53.4333 38.0267 51.4368 28.9073 46 28L46 34L43 32L37 35L38 28L33 28z"/>
<path style="fill:#404040; stroke:none;" d="M8.66667 29.3333L9.33333 29.6667L8.66667 29.3333M13.6667 37.3333L14.3333 37.6667L13.6667 37.3333z"/>
<path style="fill:#555555; stroke:none;" d="M22.3333 41.6667L22.6667 42.3333L22.3333 41.6667z"/>
</svg>
