<?xml version="1.0" standalone="yes"?>
<svg width="63" height="63">
<path style="fill:#ffffff; stroke:none;" d="M0 0L8 8L13 6L17 7L17 8L9 9L9 17L8 17L8 10L5 11L6 7L5 7L6 9L3 8L7 17L0 16L0 22L4 21L4 26L1 23L0 23L2 26L0 30L8 30L8 23L9 23L9 40L12 40L12 36L15 37L15 24L16 24L16 27L17 27L17 23L18 23L17 43L16 43L13 38L15 45L14 45L13 43L8 45L8 44L13 42L13 41L8 41L4 44L8 35L7 35L3 40L4 45L0 45L0 54L21 54C18.857 57.1644 19.7791 59.1743 23 61L23 60L20 57L23 59L35 58L35 53L36 53L37 55L39 54L41 52L40 55L43 55L42 52L57 50L57 48L50 49L51 45L42 45L42 43L47 42L47 44L51 43L51 39C47.5056 39.6989 48.7691 36.4423 51 37L51 33L50 33L50 35L49 35L49 26L50 26L50 32L51 32C56.9273 26.193 62.965 27.8698 63 18L59 17L59 19L49 18L49 9L50 9L50 11L51 11L50 8C58.9652 10.0909 62.9925 9.69773 63 0L0 0z"/>
<path style="fill:#000000; stroke:none;" d="M0 5L0 16L7 17L3 8L6 9L5 7L6 7L5 11L8 10L8 17L9 17L9 9L17 8L17 7L13 6L8 8L0 5M17 12L16 12L16 9L15 9L15 17L16 17L16 13L17 13L17 17L18 17L18 9L23 7L24 17L25 17L26 8L27 8L28 16L30 16L32 9C26.8496 6.61974 18.2606 4.71851 17 12M33 17L34 17L37 8L38 17L39 17L39 9L42 9L42 18L43 18L44 8C36.1256 8.60705 33.033 7.66186 33 17M50 8L51 11L50 11L50 9L49 9L49 18L59 19L59 17L63 18L63 9L50 8M20 11L21 12L20 11z"/>
<path style="fill:#ffffff; stroke:none;" d="M3 12L6 15L3 12M50 12L50 16L51 16L50 12z"/>
<path style="fill:#000000; stroke:none;" d="M46 13L47 14L46 13M50 18L51 19L50 18M0 22L4 26L4 21L0 22M8 23L8 30L0 30L0 45L4 45L3 40C6.4364 39.8233 6.74099 38.2773 7 35L8 35L4 44L8 41L13 41L13 42L8 44L8 45L14 45L15 45L13 38L16 43L17 43L18 23L17 23L17 27L16 27L16 24L15 24L15 37L12 36L12 40L9 40L8 23M24 23L24 28L17 31C22.6792 29.6479 38.6925 27.1109 41.3927 34.0586C43.174 38.6419 38.8662 42.7189 41 47L42 46L40 45L42 41L49 41L46 36L43 37L43 26L42 26L38 25L37 28L34 28L34 25L33 25L25 29L24 23M5 25L7 27L7 25L5 25M11 25L12 26L11 25M28 25L30 28L30 25L28 25M46 25L47 26L46 25M0 26L0 29L2 29L2 26L0 26M20 26L21 27L20 26M49 26L49 35L50 35L50 33L51 33L51 37C48.6981 36.9847 48.6981 39.0153 51 39L51 43L47 44L47 42L42 43L42 45L51 45L50 49L57 48L57 50L42 52L43 55L40 55C40.5693 52.5867 38.9113 51.4107 39 54L36 53L35 53L35 58L23 59L20 57L23 60L23 61C19.948 59.0816 18.7416 57.0113 21 54C10.8433 52.0113 0.00929102 50.9827 0 63L63 63C63 58.7946 64.964 50.0637 60 49L60 48L63 48L63 26L51 32L50 32L49 26M52.6667 26.3333L53.3333 26.6667L52.6667 26.3333M55 26L56 27L55 26M11.3333 27.6667L11.6667 28.3333L11.3333 27.6667z"/>
<path style="fill:#ffffff; stroke:none;" d="M37 28L38 29L37 28z"/>
<path style="fill:#000000; stroke:none;" d="M45.6667 28.3333L46.3333 28.6667L45.6667 28.3333M2 29L3 30L2 29z"/>
<path style="fill:#ffffff; stroke:none;" d="M41.3333 29.6667L41.6667 30.3333L41.3333 29.6667M58 29L59 30L58 29z"/>
<path style="fill:#000000; stroke:none;" d="M46 30L47 31L46 30z"/>
<path style="fill:#ffffff; stroke:none;" d="M56 30L57 31L56 30M7 31L7 34L8 34L7 31M5 32L3 35L5 32z"/>
<path style="fill:#000000; stroke:none;" d="M19 33C19.0529 38.8398 20.195 42.4193 25 46L24 44L27 45L35 43L33 46L38 42L38 41L37 37L36 37C31.3491 42.4237 26.5599 42.7517 22 37L21 37L22 40L20 34L38 34L38 40L39 40L39 33L19 33z"/>
<path style="fill:#ffffff; stroke:none;" d="M4.66667 37.3333L5.33333 37.6667L4.66667 37.3333z"/>
<path style="fill:#000000; stroke:none;" d="M25 37L25 38L33 38L25 37z"/>
<path style="fill:#ffffff; stroke:none;" d="M43 38L46 41L43 38M22 40L21 41L24 44L25 43L22 40M35 40L34 41L34 42L35 43L36 43L37 42L37 41L35 40z"/>
<path style="fill:#000000; stroke:none;" d="M22 41L23 42L22 41M35 41L36 42L35 41M8 42L9 43L8 42z"/>
<path style="fill:#ffffff; stroke:none;" d="M32 42L33 43L32 42z"/>
<path style="fill:#000000; stroke:none;" d="M49 42L50 43L49 42M16 44L16 45L19 45L16 44M29 44L30 45L29 44z"/>
<path style="fill:#ffffff; stroke:none;" d="M44 44L45 45L44 44z"/>
<path style="fill:#000000; stroke:none;" d="M46 46L47 48L48 48L49 46L46 46M44 48L45 49L44 48z"/>
<path style="fill:#ffffff; stroke:none;" d="M60 48L60 49L63 49L60 48z"/>
<path style="fill:#000000; stroke:none;" d="M21 53L23 57L24 57L21 53M26 53C27.9468 55.2309 30.0532 55.2309 32 53L26 53z"/>
<path style="fill:#ffffff; stroke:none;" d="M24 60L24 61L30 62L31 60L24 60M32.6667 59.3333L33.3333 59.6667L32.6667 59.3333M19 61L20 62L19 61M31 61L32 62L31 61M21 62L22 63L21 62M26 62L27 63L26 62M28 62L29 63L28 62M33 62L34 63L33 62z"/>
</svg>
