<?xml version="1.0" standalone="yes"?>
<svg width="62" height="56">
<path style="fill:#000000; stroke:none;" d="M0 0C0 9.44644 -3.37438 28.0364 2 36L0 56L38 54L38 55L35 55L35 56L62 56L60 51L60 50C64.4028 47.4446 63.4433 18.9521 59 18L59 17L62 17L62 0C50.7269 0 32.1538 -3.25551 22 2C21.4006 -1.59621 9.09453 -0.620701 7 2L0 0z"/>
<path style="fill:#ffffff; stroke:none;" d="M6.33333 0.666668L6.66667 1.33333L6.33333 0.666668M8.66667 0.333332L9.33333 0.666668L8.66667 0.333332M12 0L13 1L12 0M23 0L22 2L24 2L23 0M27 0L28 1L27 0M29.6667 0.333332L30.3333 0.666668L29.6667 0.333332M37 0L38 1L37 0M40 0L41 1L40 0M10 1L11 2L10 1M26 1L27 2L26 1M41 1L41 3L43 3L41 1M7.66667 2.33333L8.33333 2.66667L7.66667 2.33333M7 8L8 8L12 4L6 10L6 11C11.1194 11.669 8.50843 22.9196 10 27L6 27L6 26C9.15275 23.245 9.15275 14.755 6 12L6 26L2 24L2 30L4 29L4 30L5 36L1 33L4 40L8 42L6 41L8 43L8 44L6 48L9 48L8 44L11 48L15 47L14 49L17 48L18 51L19 51L17 47L22 48L21 51L30 52L30 51L25 52L25 51L37 51L38 51L37 48L41 47L40 50L41 46L47 47L48 47L47 44C50.9535 47.6147 53.6983 47.9959 59 48L59 49L47 49L47 50L61 49L58.8333 25.5L50 25L50 24L61 25L61 24L43 25L43 26L47 26L47 27L41 27L44 10L43 13L43 14C47.3715 14 46.5992 10.5198 44 10L45 4L44 4L42 9L43 6L42 6L40 9L41 4L39 6L38 6L27 3C29.6942 6.73581 33.721 5.99953 38 6L38 7L27 7L27 13L26 13L26 7L11 8L27 6L25 2L24 2L14 5L14 4L22 4C16.1922 1.54022 9.95662 2.01118 7 8M29.6667 2.33333L30.3333 2.66667L29.6667 2.33333M34.6667 2.33333L35.3333 2.66667L34.6667 2.33333M38 2L39 3L38 2z"/>
<path style="fill:#000000; stroke:none;" d="M12.6667 3.33333L13.3333 3.66667L12.6667 3.33333z"/>
<path style="fill:#ffffff; stroke:none;" d="M6 4L7 5L6 4z"/>
<path style="fill:#000000; stroke:none;" d="M24 4L25 5L24 4M10 8L9 11L10 11L10 8M41 9L42 10L41 9M19 34L19 33L17 31L33 28L40 27C37.8457 17.9512 42.1426 10.0429 30 10L30 19L26 16L25 16L22 19L22 12L15 14L13 11L22 11C7.85215 5.06553 9.35662 29.484 19 34M24.3333 11.6667L24.6667 12.3333L24.3333 11.6667z"/>
<path style="fill:#ffffff; stroke:none;" d="M31 11L31 20L32 20L34 13L32 14L34 12L31 11M35 11L35 12L38 13L35 11M17 13L18 14L17 13M35 17L37 21L38 21L39 14L35 17M13 15C13.0005 19.279 12.2642 23.3058 16 26L16 27L13 28L14 26L13 26L12 28L15 30L15 15L13 15z"/>
<path style="fill:#000000; stroke:none;" d="M32 15L33 16L32 15z"/>
<path style="fill:#ffffff; stroke:none;" d="M45 15L46 16L45 15M25 17L25 20L24 21L22 20L23 24L24 24L24 21L30 21L30 22L25 24L31 29L31 28L27 23L31 25L31 24L29 23L31 21L25 17M59 17L59 18L62 18L59 17z"/>
<path style="fill:#000000; stroke:none;" d="M25 18L25 21L26 21L25 18z"/>
<path style="fill:#ffffff; stroke:none;" d="M34 19L35 20L34 19M51 19L54 21L51 19M46 21L47 22L46 21M36 22L35 28L32 23L32 28L35 29L36 29L39 27L36 22M18 24L18 25L21 25L18 24M0 25L1 26L0 25M18 26L18 27L18 28L24 26L16 30L16 31L27 29L18 26z"/>
<path style="fill:#000000; stroke:none;" d="M33 25L34 26L33 25M49 25L48 28L49 28L49 25z"/>
<path style="fill:#ffffff; stroke:none;" d="M30 26L31 27L30 26M61.3333 26.6667L61.6667 27.3333L61.3333 26.6667M1 27L2 28L1 27z"/>
<path style="fill:#000000; stroke:none;" d="M5 27L4 29L5 27M51 28L51 43L57 43L57 44L51 44L51 45L58 44L58 28L51 28z"/>
<path style="fill:#ffffff; stroke:none;" d="M52 30L52 31L56 30L52 30M0 30L0 33L1 33L0 30z"/>
<path style="fill:#000000; stroke:none;" d="M7 30L7 31L10 31L10 35L9 35L8 32L7 32C16.1709 51.6658 33.0899 45.5166 49 41L49 31L40 30L41 33L37 34L39 31L34 35L33 35C29.3048 30.7712 21.0985 32.8263 22 39L39 40L40 40C32.244 52.2187 13.9034 31.9377 7 30z"/>
<path style="fill:#ffffff; stroke:none;" d="M41 31L41 32L47 32L41 31M55 31L56 32L55 31M10 32L11 33L10 32M10 35L28 46L29 46L28 43C23.2281 43.4333 19.1277 42.8249 16 39L18 40L10 35M22 35L22 38L23 38L26 35L22 35M27.6667 34.3333L28.3333 34.6667L27.6667 34.3333M32 35L38 41L37 34L32 35M0 35L0 37L2 37L0 35M30 35L31 36L30 35z"/>
<path style="fill:#000000; stroke:none;" d="M34 36L37 39L37 35L34 36M5 36L4 37L4 38L5 39L8 42L8 43L12 43L10 45L13 47L13 45L17 47L17 46L5 36M12 36L12 37L16 39L12 36z"/>
<path style="fill:#ffffff; stroke:none;" d="M25 36L25 38L27 38L25 36M28 36L31 38L31 37L28 36M5 37L6 38L5 37M1 38L2 39L1 38M0 39L1 40L0 39M42 40L41 42L43 42L42 40M44.6667 40.3333L45.3333 40.6667L44.6667 40.3333M53 40L53 41L56 42L53 40M30 46L36 45C33.5633 42.9367 31.6142 43.2033 30 46M12 44L13 45L12 44M61 45L62 46L61 45M43 47L46 49L46 46L43 47M61 47L62 48L61 47z"/>
<path style="fill:#000000; stroke:none;" d="M22 49L22 50L27 50L22 49z"/>
<path style="fill:#ffffff; stroke:none;" d="M14.3333 50.6667L14.6667 51.3333L14.3333 50.6667M34.6667 50.3333L35.3333 50.6667L34.6667 50.3333M60.6667 50.3333L61.3333 50.6667L60.6667 50.3333M31 51L33 54L31 51M46 51L46 53L48 51L46 51M18 53L18 54L23 54L18 53M34 52L34 53L39 54L34 52M43 52L44 53L43 52M50 52L50 53L53 53L50 52M54.6667 52.3333L55.3333 52.6667L54.6667 52.3333M24 54L24 55L28 55L24 54M34 56L38 55L34 56M47 54L47 55L52 55L47 54M54 54L54 55L59 55L54 54M53 55L54 56L53 55z"/>
</svg>
