<?xml version="1.0" standalone="yes"?>
<svg width="67" height="54">
<path style="fill:#ffffff; stroke:none;" d="M0 0L4 3L0 0z"/>
<path style="fill:#000000; stroke:none;" d="M2 0L4 3L0 3L0 11L10 10L10 9L8 9L8 8L13 8L13 9L11 9L11 10L16 10L16 9L14 9L14 8L23 11L25 6L21 9L19 6L19 5L26 3C38.1404 11.5034 59.9827 -4.41798 60 18L61 18L59 6L66 7L66 8L62 8L62 17L67 18C67 12.2434 68.5917 -5.71738 58 2C55.9632 -1.74773 47.2224 0.107208 43.3889 0.25C29.6627 0.761284 15.7702 0 2 0z"/>
<path style="fill:#ffffff; stroke:none;" d="M23 0L24 1L23 0M26 0L27 1L26 0M40 0L41 1L40 0M43 0L44 1L43 0M56 0L57 1L56 0M58.3333 0.666668L58.6667 1.33333L58.3333 0.666668M61 0L62 1L61 0M66.3333 0.666668L66.6667 1.33333L66.3333 0.666668M24 1L22 3L22 4L26 2L24 1M28 1L27 2L27 3L28 4L40 5L41 5L38 1C38 5.46384 30.4509 2.16097 28 1M42 1L42 5L43 5L57 2C53.503 3.16566 45.1224 4.51042 46 1L42 1M54 1L55 2L54 1M60 1L62 3L60 1z"/>
<path style="fill:#000000; stroke:none;" d="M28 2L29 3L28 2z"/>
<path style="fill:#ffffff; stroke:none;" d="M26 3L19 5L19 6L21 9L25 6L23 11L14 8L14 9L16 9L16 10L11 10L11 9L13 9L13 8L8 8L8 9L10 9L10 10L0 11L0 16C4.10429 16.5364 3 21.6451 3 25L14 23L14 22L11 22L11 21L22 19L23 19L23 30L2 28L0 39L4 42L7 42L15 37L15 36L13 36L13 35L20 32L21 33L21 40L24 38L25 44L22 42L22 45L24 44L24 45L22 48L34 50L39 48L37 46L37 45L38 43L47 50L54 47L53 50L54 50L57 48L60 44L60 47L61 47C61.9923 44.0232 62.9595 41.5919 60 41L62 37L61 37L61 39L60 39L60 26L61 26L61 36L62 36L62 26C68.3572 24.9391 68.0814 18.3271 62 17L62 8L66 8L66 7L59 6L61 18L60 18C59.9976 -3.93406 39.2872 10.3895 26 3M59 3L58 6L59 3M61 4L62 5L61 4M17 5L19 7L17 5M66 5L67 6L66 5z"/>
<path style="fill:#000000; stroke:none;" d="M42 7L43 8L42 7z"/>
<path style="fill:#ffffff; stroke:none;" d="M0 8L1 9L0 8M2.66667 8.33333L3.33333 8.66667L2.66667 8.33333M5 8L6 9L5 8z"/>
<path style="fill:#000000; stroke:none;" d="M28 8L29 12L30 12L28 8M36 8L34 10L34 11L36 14L28 17L28 32L27 32L27 29L26 29L27 39C33.0771 34.997 35.6286 38.8426 41.9606 38.8873C48.2701 38.9319 50.3066 35.7875 57 38L57 26L49 29L49 27L45 29L41 24L41 25L44 26L44 27L40 27L36 29L30 21L30 18L35 16L35 20L42 15C44.6446 18.9565 52.5947 17.7005 57 17L57 9L56 9L53 14L55 11L46 9L46 17L42 14L41 14L35 16L38 8L36 8M50 8L50 9L53 9L50 8M42.3333 9.66667L42.6667 10.3333L42.3333 9.66667z"/>
<path style="fill:#ffffff; stroke:none;" d="M47 11L47 16L48 16L50 12L47 11M51 11L52 12L51 11z"/>
<path style="fill:#000000; stroke:none;" d="M1 12L3 14L1 12M0.333333 13.6667L0.666667 14.3333L0.333333 13.6667z"/>
<path style="fill:#ffffff; stroke:none;" d="M51 13L50 17L51 13z"/>
<path style="fill:#000000; stroke:none;" d="M28 14L29 15L28 14z"/>
<path style="fill:#ffffff; stroke:none;" d="M55.3333 14.6667L55.6667 15.3333L55.3333 14.6667z"/>
<path style="fill:#000000; stroke:none;" d="M1 15L0 37L1 37L2 28L23 30L23 19L22 19L11 21L11 22L14 22L14 23L3 25L1 15z"/>
<path style="fill:#ffffff; stroke:none;" d="M53 16L54 17L53 16M36 18L37 19L36 18z"/>
<path style="fill:#000000; stroke:none;" d="M43 19L44 20L43 19M26 21L27 22L26 21z"/>
<path style="fill:#ffffff; stroke:none;" d="M0 22L1 23L0 22z"/>
<path style="fill:#000000; stroke:none;" d="M6 22L7 23L6 22M8.66667 22.3333L9.33333 22.6667L8.66667 22.3333z"/>
<path style="fill:#ffffff; stroke:none;" d="M17 22L15 23L15 24L17 22M20 22L22 27L22 22L20 22M1 23L2 24L1 23z"/>
<path style="fill:#000000; stroke:none;" d="M20 23L21 24L20 23M26 23L26 27L27 27L26 23z"/>
<path style="fill:#ffffff; stroke:none;" d="M29 23L31 25L31 23L29 23z"/>
<path style="fill:#000000; stroke:none;" d="M39.3333 24.6667L39.6667 25.3333L39.3333 24.6667M51 24L52 25L51 24z"/>
<path style="fill:#ffffff; stroke:none;" d="M33 25L31 27L31 28L34 29L31 29L33 34L28 33L27 33L27 37L39 35L38 38L45 35L44 38L45 38L49 35L49 34L34 34L34 33L52 33L52 32L49 32L34 30L35 25L33 25z"/>
<path style="fill:#000000; stroke:none;" d="M66 25L62 26L62 36L61 36L61 26L60 26L60 39L61 39L61 37L62 37L60 41L61 47L60 47L60 44L57 48L54 50L53 50L54 47L47 50L38 43L39 48L34 50C31.2971 46.1845 26.1429 47.0027 22 48L24 44L22 45L22 42L25 44L24 38L21 40L21 33L20 32L13 35L13 36L15 36L15 37L7 42L4 42L0 39L0 54L67 54L66 25z"/>
<path style="fill:#ffffff; stroke:none;" d="M52 27L50 29L50 30L54 30L52 27M42 28L43 29L42 28z"/>
<path style="fill:#000000; stroke:none;" d="M33 30L33 33L34 33L33 30z"/>
<path style="fill:#ffffff; stroke:none;" d="M55 31L55 35L52 34L52 35L56 37L55 31z"/>
<path style="fill:#000000; stroke:none;" d="M50 32L51 33L50 32z"/>
<path style="fill:#ffffff; stroke:none;" d="M53 32L54 33L53 32z"/>
<path style="fill:#000000; stroke:none;" d="M22 33L22 38L23 38L22 33M40 35L40 37L42 37L42 35L40 35M32 38L30 41L32 38M50 38L48 41L50 38M34 39L32 44L32 45C34.9458 43.3664 35.9487 41.9394 34 39M52 39L50 44L50 45C52.9458 43.3664 53.9487 41.9394 52 39M59 39L54 47L57 43L61 44L59 39M24 40L25 47L29 47L24 40z"/>
<path style="fill:#ffffff; stroke:none;" d="M58 41L59 42L58 41z"/>
<path style="fill:#000000; stroke:none;" d="M30.3333 42.6667L30.6667 43.3333L30.3333 42.6667M39 42L39 43L50 48L50 47L45 42L39 42M48.3333 42.6667L48.6667 43.3333L48.3333 42.6667z"/>
<path style="fill:#ffffff; stroke:none;" d="M41 45L40 47L42 47L41 45z"/>
<path style="fill:#000000; stroke:none;" d="M36 46L34 47L34 48L36 46z"/>
<path style="fill:#ffffff; stroke:none;" d="M43 47L44 48L43 47M58 47L59 48L58 47M30.3333 48.6667L30.6667 49.3333L30.3333 48.6667M26 51L27 52L26 51M30.6667 51.3333L31.3333 51.6667L30.6667 51.3333M10 52L10 53L16 53L10 52M17 52L18 53L17 52M30 53L31 54L30 53M35 53L36 54L35 53z"/>
</svg>
