<?xml version="1.0" standalone="yes"?>
<svg width="64" height="48">
<path style="fill:#000000; stroke:none;" d="M0 0L0 48C13.7549 48 37.7569 52.3712 50 46L49 48L50 48L64 48L61 17C55.4104 18.1978 58 34.9367 58 40L48 40L48 41L54 43L38 47L38 44L22 44L22 45L25 46L5 44L2 43L2 42L12 41L12 40L2 40L2 5L12 5L12 4L1 5L13 2.25077L41.9961 1.14738L58 5L58 16L64 16L64 0L49 0L49 1L51 1L0 0z"/>
<path style="fill:#ffffff; stroke:none;" d="M12 0L13 1L12 0M47 0L47 1L51 2L51 1L47 0M51 0L52 1L51 0M1 5L12 4L12 5L2 5L2 40L12 40L12 41L2 42L2 43L5 44C5 41.259 8.52004 41.3643 11 42.1667C16.7494 44.0268 17.2686 48.9928 25 46L22 45L22 44L38 44L38 47L54 43L48 41L48 40L58 40C58 33.9039 55.4141 20.6213 61 17L64 21C63.6541 16.6749 62.2962 15.6702 58 16L58 5L42.9853 1.14738L13 1.91049L1 5M49 3L49 4L58 4L49 3z"/>
<path style="fill:#000000; stroke:none;" d="M15 4L15 5L45 5L15 4z"/>
<path style="fill:#ffffff; stroke:none;" d="M59 4L60 5L59 4M0.333333 6.66667L0.666667 7.33333L0.333333 6.66667M59 6L60 7L59 6z"/>
<path style="fill:#000000; stroke:none;" d="M4 8L4 9L13 9L13 10L11 12L10 12C9.21269 9.95298 8.78731 9.95298 8 12L7 12L5 10L4 37L14 37L14 8L4 8M17 8C17 13.6047 14.1508 35.7466 20 37L20 36L18 27L25 27L25 26L18 26L18 16C25.1107 16.0251 30.0381 18.3837 26 26C27.9888 29.577 28.545 32.6363 26 36L26 37L31 37L31 36C23.5773 26.1881 43.0236 22.6649 37 37L43 37L43 8L17 8M46 8L46 37L56 37C53.9341 28.3227 53.9341 16.6773 56 8L46 8z"/>
<path style="fill:#ffffff; stroke:none;" d="M0 9L0 12L1 12L0 9M18 9C18.0135 12.1942 17.5971 14.2708 21 15L21 14L21 10L18 9M22 9L22 10L29 10L22 9M31 9L31 11C39.1952 10.6653 40.9719 12.7748 41 21L38 13L37 13L36 23L35 23L35 21L34 21L37 25L37 20L40 25L42 10L31 9M47 9L47 36L54 35L54 34L48 35L48 10L52 12L51 10L53 12C54.3563 8.402 49.5347 9.01036 47 9M59 9L60 10L59 9M12 11L13 12L12 11M6 12L6 16L7 16L6 12M21 12L28 15L28 14L26 12L21 12M30 12L31 13L30 12M49 12L49 20L50 20L49 12M9 13L9 16L10 16L9 13M12 13L13 14L12 13z"/>
<path style="fill:#000000; stroke:none;" d="M23 13L24 14L23 13z"/>
<path style="fill:#ffffff; stroke:none;" d="M12 15L12 20L13 20L12 15M29 15L29 20L30 20L29 15M34 15L34 19L35 19L34 15M51 15L51 16L54 16L51 15M32 16L28 27L29 27L32 22L34 25L32 16M9 18L10 19L9 18z"/>
<path style="fill:#000000; stroke:none;" d="M24 18L22 22L23 20L22 20L21 23L25 23L24 18z"/>
<path style="fill:#ffffff; stroke:none;" d="M6 20L6 26L7 26L6 20M9 20L9 23L10 23L9 20M12 21L12 26L13 26L12 21M49 22L49 26L50 26L49 22M38 25L40 27L38 25M41.3333 26.6667L41.6667 27.3333L41.3333 26.6667M6 27L8 30L6 27M9.33333 27.6667L9.66667 28.3333L9.33333 27.6667M12 27L13 28L12 27M49 27L49 30L50 30L49 27M12 29L13 30L12 29z"/>
<path style="fill:#000000; stroke:none;" d="M24 29L22 33L23 31L22 31L21 34L25 34L24 29M31 29L31 34L36 34L36 29L35 29L31 29z"/>
<path style="fill:#ffffff; stroke:none;" d="M40 29L40 32C42.0059 30.8734 42.0059 30.1266 40 29M9.33333 30.6667L9.66667 31.3333L9.33333 30.6667M12 31L9 35L9 36L13 36L12 31M33 32L34 33L33 32M40 33L39 35L39 36C41.4584 35.4831 42.5234 34.4173 40 33M6 34L6 36L8 36L6 34M0 36L1 37L0 36M59.3333 37.6667L59.6667 38.3333L59.3333 37.6667M0 39L1 40L0 39M1 40L2 41L1 40z"/>
<path style="fill:#000000; stroke:none;" d="M15 40L15 41L45 41L15 40z"/>
<path style="fill:#ffffff; stroke:none;" d="M58 40L58 42L55 41L55 42L58 44L60 40L58 40M0 41L1 42L0 41M0 43L1 44L0 43M7 43L8 44L7 43M10 43L11 44L10 43M50 43L51 44L50 43M52 43L53 44L52 43M55 43L56 44L55 43M12 44L14 47L12 44z"/>
<path style="fill:#000000; stroke:none;" d="M17.6667 44.3333L18.3333 44.6667L17.6667 44.3333M41.6667 44.3333L42.3333 44.6667L41.6667 44.3333z"/>
<path style="fill:#ffffff; stroke:none;" d="M46 47L49 44L46 47M25 46L25 47L37 47L37 45L25 46M50.6667 45.3333L51.3333 45.6667L50.6667 45.3333M48 46L48 48L50 46L48 46M14 47L15 48L14 47M24 47L25 48L24 47M26 47L27 48L26 47M45 47L46 48L45 47M51 47L52 48L51 47z"/>
</svg>
