<?xml version="1.0" standalone="yes"?>
<svg width="53" height="53">
<path style="fill:#ffffff; stroke:none;" d="M0 0L0 1C15.1897 5.21823 37.3228 2.23562 53 1L36 0L0 0z"/>
<path style="fill:#000000; stroke:none;" d="M0 1L0 15L3 12L4 12L4 21C-3.45208 23.4733 0 44.1816 0 51L53 53L53 52L48 49C36.8432 49 13.1774 44.572 4 51L3 47C7.76802 45.8151 9.22788 40.4591 9 36L4 36L4 35L7 36L8 32L9 32L9 35L12 31C4.48916 27.4556 0.384129 10.6787 10.044 6.74228C16.329 4.1811 37.974 3.75957 43.9414 7.02778C53.2295 12.1148 47.5712 27.7738 41 32L41 34C43.6521 36.3739 43.9513 37.5666 43 41L53 51C53 46.8982 54.8528 39.0399 50 38L51 41L49 40L51 48L50 48L47 40L44 41L43 32L52 32L53 24L49 24L53 1L0 1z"/>
<path style="fill:#ffffff; stroke:none;" d="M4 3L3 4L3 11L4 11L11 5L4 3M12.6667 3.33333L13.3333 3.66667L12.6667 3.33333M27 3L28 4L27 3M40 4L40 5C45.0744 5.29931 47.4881 7.74413 50 12L51 12L49 8L49 7L50 3L40 4z"/>
<path style="fill:#000000; stroke:none;" d="M4 5L5 6L4 5z"/>
<path style="fill:#ffffff; stroke:none;" d="M12 31C11.2738 33.3106 9.48356 35.7476 9 32L8 32L7 36L4 35L4 36L9 36C9 40.0581 6.31451 47.8286 3 47L4 51C14.8055 44.9907 35.7593 49 48 49L53 52L53 51L43 41C44.6223 37.5086 44.4353 35.9154 41 34L41 32C47.926 28.9172 53.0237 11.8663 44.8519 7.02778C39.0704 3.60461 15.2684 4.09322 9.1088 6.74228C0.569962 10.4146 4.14435 28.7687 12 31z"/>
<path style="fill:#000000; stroke:none;" d="M24 8.42824C20.2497 8.87605 12.6193 7.63912 9.6034 10.0278C5.9416 12.928 7.0858 26.2113 11.1481 28.3488C16.2224 31.0186 34.0957 29.7581 39.9954 28.8565C46.4693 27.8672 49.1698 14.002 44.2577 10.0278C40.9239 7.33046 28.1872 7.92827 24 8.42824z"/>
<path style="fill:#ffffff; stroke:none;" d="M21 13L20 13L20 10L15 12L15 16L19 13L20 13L21 19L13 17L14 14L9 17L9 20L12 20L12 21L9 23L14 22L14 24L21 22L21 27L33 27L33 26L31 20L32 20L32 25L33 25L39 24L38 22L42 22L42 21L38 21L38 20L44 20L44 23L45 23L45 16C41.8671 17.0443 38.1955 18.2182 39 15L34 17L34 11C29.3017 8.98125 23.8809 8.06943 21 13M9 10L10 11L9 10M43 10L43 15L44 15L43 10z"/>
<path style="fill:#000000; stroke:none;" d="M23 12L26 15L27 12L28 15L29 15L30 12L23 12z"/>
<path style="fill:#ffffff; stroke:none;" d="M3 12L0 15L0 22L4 21L3 12M9.33333 12.6667L9.66667 13.3333L9.33333 12.6667z"/>
<path style="fill:#000000; stroke:none;" d="M18 12L17 14L18 12z"/>
<path style="fill:#ffffff; stroke:none;" d="M49 13L51 16L51 13L49 13M9 15L10 16L9 15z"/>
<path style="fill:#000000; stroke:none;" d="M22 15L23 16L22 15z"/>
<path style="fill:#ffffff; stroke:none;" d="M41 15L42 16L41 15M52 15L49 24L53 24L52 15z"/>
<path style="fill:#000000; stroke:none;" d="M25 16L26 17L25 16M27 16L28 17L27 16M30 16L29 19L30 16M12 17L15 21L15 20L12 17M23 17L25 20L23 17M33 17L32 20L37 21L37 20L33 17M16 20L16 21L19 21L16 20M21 20L22 26L23 26L21 20z"/>
<path style="fill:#ffffff; stroke:none;" d="M3.33333 23.6667L3.66667 24.3333L3.33333 23.6667M9 24L10 25L9 24M43.3333 24.6667L43.6667 25.3333L43.3333 24.6667z"/>
<path style="fill:#000000; stroke:none;" d="M26.6667 25.3333L27.3333 25.6667L26.6667 25.3333z"/>
<path style="fill:#ffffff; stroke:none;" d="M49 25L49 27L51 25L49 25M3 27L3 33L7 35C7.20605 31.0672 6.4876 28.9518 3 27M13 27L13 29L15 29L13 27M16 27L17 28L16 27M38 27L38 28L41 28L41 27L38 27M49 28L51 30L49 28M43 32L44 41L47 40L50 48L51 48L49 40L51 41L50 38C53.7158 37.2038 53 34.3627 53 31L43 32z"/>
<path style="fill:#000000; stroke:none;" d="M14 33L16 41L24 41C23.0487 37.5666 23.3479 36.3739 26 34C22.3421 30.2653 18.4816 30.8438 14 33M28 32L33 44L34 44L36 35L35 35L31 41L31 40L34 39C32.6262 37.1682 30.736 35.184 34 36L34 35L29 32L35 32L34 34L36 32L39 34C35.7362 30.6671 32.341 30.7202 28 32M48 31L49 32L48 31z"/>
<path style="fill:#ffffff; stroke:none;" d="M10 32L11 33L10 32M16 33L19 42L21 42C21.523 39.4599 21.5947 39.3145 19 39L24 32L16 33z"/>
<path style="fill:#000000; stroke:none;" d="M47 33L48 34L47 33M11 37L11 38L15 39L14 36L11 37M26 36L25 37L25 38L25 39L28 36L26 36M39 36L42 39L41 36L39 36z"/>
<path style="fill:#ffffff; stroke:none;" d="M3 37L3 41L6 41L3 42L4 45L5 45L9 41L8 38L3 37M26 37L27 38L26 37z"/>
<path style="fill:#000000; stroke:none;" d="M48 38L49 39L48 38z"/>
<path style="fill:#ffffff; stroke:none;" d="M35 40L36 41L35 40M33.3333 41.6667L33.6667 42.3333L33.3333 41.6667z"/>
<path style="fill:#000000; stroke:none;" d="M8 45L8 46L11 45L11 47L19 47C15.7853 43.7737 12.2727 43.8941 8 45M21 47L23 45C26.1571 47.1769 28.7305 46.9568 32 45C27.7273 43.8941 24.2147 43.7737 21 47M35 47L46 47C42.8518 43.9401 37.6699 42.9841 35 47z"/>
<path style="fill:#ffffff; stroke:none;" d="M7 50L7 51L10 51L7 50M12 50L12 51L15 51L12 50M16.6667 50.3333L17.3333 50.6667L16.6667 50.3333M21.6667 50.3333L22.3333 50.6667L21.6667 50.3333M24.6667 50.3333L25.3333 50.6667L24.6667 50.3333M28 50L28 51L32 51L28 50M35.6667 50.3333L36.3333 50.6667L35.6667 50.3333M38 50L38 51L44 51L38 50M45 50L46 51L45 50M0 51L12 53L0 51z"/>
</svg>
