<?xml version="1.0" standalone="no"?>
<!DOCTYPE svg PUBLIC "-//W3C//DTD SVG 20010904//EN"
 "http://www.w3.org/TR/2001/REC-SVG-20010904/DTD/svg10.dtd">
<svg version="1.0" xmlns="http://www.w3.org/2000/svg"
 width="62.000000pt" height="58.000000pt" viewBox="0 0 62.000000 58.000000"
 preserveAspectRatio="xMidYMid meet">

<g transform="translate(0.000000,58.000000) scale(0.100000,-0.100000)"
fill="#000000" stroke="none">
<path d="M225 515 c-31 -30 -33 -85 -5 -140 11 -22 20 -43 20 -47 0 -5 -25
-21 -57 -36 -69 -33 -91 -62 -98 -127 l-4 -50 9 45 c14 65 30 89 72 111 48 25
49 24 41 -11 -5 -27 -3 -30 13 -24 11 4 24 11 31 16 19 15 23 -7 15 -71 -5
-35 -5 -58 0 -53 5 5 10 41 11 80 2 57 5 72 17 72 12 0 16 -15 17 -65 1 -35 6
-72 12 -82 10 -18 9 5 -5 74 -6 30 5 56 20 45 6 -5 19 -12 30 -16 16 -5 18 -2
14 24 -3 16 -3 30 -1 30 12 0 83 -42 90 -52 4 -7 13 -38 20 -68 l13 -55 -4 49
c-5 63 -30 95 -99 128 -60 29 -67 41 -41 69 8 9 18 42 21 72 5 50 3 58 -20 81
-36 36 -98 36 -132 1z m125 -5 c12 -12 20 -33 20 -55 0 -41 -24 -105 -39 -105
-6 0 -10 -9 -8 -21 1 -12 -6 -26 -16 -33 -23 -15 -53 4 -50 33 2 12 -2 21 -8
21 -15 0 -39 64 -39 105 0 48 29 75 80 75 27 0 47 -7 60 -20z m-96 -217 c7
-16 -16 -43 -36 -43 -10 0 -10 3 2 34 11 30 25 33 34 9z m106 -2 c20 -39 9
-52 -24 -28 -11 8 -15 19 -10 30 8 22 21 22 34 -2z"/>
<path d="M132 458 c-22 -22 -8 -98 19 -98 6 0 3 7 -6 16 -23 23 -15 66 15 81
22 11 23 13 5 13 -12 0 -26 -5 -33 -12z"/>
<path d="M417 463 c28 -5 40 -45 24 -80 -11 -23 -10 -25 3 -13 19 15 21 71 4
88 -7 7 -21 11 -32 11 -19 -2 -19 -2 1 -6z"/>
<path d="M93 316 c-29 -17 -38 -28 -40 -51 l-2 -30 9 31 c10 33 40 51 95 56
l30 3 -27 6 c-18 4 -40 -1 -65 -15z"/>
<path d="M420 330 c-24 -8 -23 -8 7 -9 50 -2 82 -21 93 -55 l9 -31 -2 30 c-2
24 -10 34 -42 51 -28 15 -47 19 -65 14z"/>
</g>
</svg>
