<?xml version="1.0" standalone="no"?>
<!DOCTYPE svg PUBLIC "-//W3C//DTD SVG 20010904//EN"
 "http://www.w3.org/TR/2001/REC-SVG-20010904/DTD/svg10.dtd">
<svg version="1.0" xmlns="http://www.w3.org/2000/svg"
 width="58.000000pt" height="53.000000pt" viewBox="0 0 58.000000 53.000000"
 preserveAspectRatio="xMidYMid meet">

<g transform="translate(0.000000,53.000000) scale(0.100000,-0.100000)"
fill="#000000" stroke="none">
<path d="M220 420 l0 -70 -70 0 -71 0 3 -77 3 -78 215 0 215 0 0 145 0 145
-147 3 -148 3 0 -71z m40 46 c0 -9 11 -13 35 -12 21 1 35 6 35 14 0 6 7 12 15
12 12 0 15 -14 15 -65 l0 -65 -65 0 -65 0 0 65 c0 51 3 65 15 65 8 0 15 -6 15
-14z m51 5 c-8 -5 -20 -7 -28 -4 -21 8 -15 13 15 13 20 0 23 -3 13 -9z m99 -4
c0 -8 12 -13 30 -13 18 0 30 5 30 13 0 7 9 13 20 13 18 0 20 -7 20 -65 l0 -65
-70 0 -70 0 0 65 c0 58 2 65 20 65 11 0 20 -6 20 -13z m45 3 c-3 -5 -12 -7
-20 -3 -21 7 -19 13 6 13 11 0 18 -4 14 -10z m-335 -145 c0 -10 11 -15 35 -15
24 0 35 5 35 15 0 8 7 15 15 15 12 0 15 -14 15 -64 0 -71 -4 -75 -85 -71 l-40
2 -3 67 c-2 54 0 66 13 66 8 0 15 -7 15 -15z m55 5 c-3 -5 -15 -10 -26 -10
-10 0 -19 5 -19 10 0 6 12 10 26 10 14 0 23 -4 19 -10z m85 -5 c0 -10 11 -15
35 -15 24 0 35 5 35 15 0 8 7 15 15 15 13 0 15 -12 13 -67 l-3 -68 -60 0 -60
0 -3 68 c-2 55 0 67 13 67 8 0 15 -7 15 -15z m60 5 c0 -5 -9 -10 -19 -10 -11
0 -23 5 -26 10 -4 6 5 10 19 10 14 0 26 -4 26 -10z m90 -5 c0 -10 10 -15 29
-15 16 0 31 6 35 15 3 8 12 15 21 15 13 0 15 -11 13 -67 l-3 -68 -65 0 -65 0
-3 54 c-2 29 -1 60 2 67 7 19 36 18 36 -1z m50 5 c0 -5 -9 -10 -20 -10 -11 0
-20 5 -20 10 0 6 9 10 20 10 11 0 20 -4 20 -10z"/>
<path d="M78 163 c-2 -5 -3 -30 -3 -58 l1 -50 219 0 219 0 2 58 2 57 -218 0
c-121 0 -220 -3 -222 -7z m432 -13 c0 -6 -77 -10 -210 -10 -133 0 -210 4 -210
10 0 6 77 10 210 10 133 0 210 -4 210 -10z m-370 -40 c0 -15 -7 -20 -25 -20
-18 0 -25 5 -25 20 0 15 7 20 25 20 18 0 25 -5 25 -20z m120 0 c0 -18 -7 -20
-55 -20 -48 0 -55 2 -55 20 0 18 7 20 55 20 48 0 55 -2 55 -20z m60 -1 c0 -15
-5 -20 -22 -17 -34 5 -37 38 -4 38 20 0 26 -5 26 -21z m128 4 c-2 -14 -15 -19
-61 -21 -52 -3 -57 -1 -57 18 0 18 6 20 61 20 52 0 60 -2 57 -17z m52 -3 c0
-13 -7 -20 -20 -20 -13 0 -20 7 -20 20 0 13 7 20 20 20 13 0 20 -7 20 -20z m5
-40 c-4 -6 -85 -10 -211 -10 -129 0 -204 4 -204 10 0 6 77 10 211 10 137 0
208 -3 204 -10z"/>
</g>
</svg>
