<?xml version="1.0" standalone="no"?>
<!DOCTYPE svg PUBLIC "-//W3C//DTD SVG 20010904//EN"
 "http://www.w3.org/TR/2001/REC-SVG-20010904/DTD/svg10.dtd">
<svg version="1.0" xmlns="http://www.w3.org/2000/svg"
 width="64.000000pt" height="55.000000pt" viewBox="0 0 64.000000 55.000000"
 preserveAspectRatio="xMidYMid meet">

<g transform="translate(0.000000,55.000000) scale(0.100000,-0.100000)"
fill="#000000" stroke="none">
<path d="M150 508 c-47 -32 -71 -68 -77 -116 -8 -58 4 -107 34 -142 28 -34 83
-67 83 -50 0 5 -6 10 -12 10 -19 1 -54 33 -77 71 -28 46 -27 112 2 163 58 102
214 103 277 0 24 -38 37 -46 19 -11 -17 33 -50 67 -81 83 -43 22 -129 18 -168
-8z"/>
<path d="M407 510 c3 -11 14 -20 24 -20 18 0 18 1 -1 20 -11 11 -22 20 -24 20
-2 0 -2 -9 1 -20z"/>
<path d="M440 519 c-11 -8 -7 -9 16 -4 43 8 84 -25 84 -69 0 -17 -5 -37 -12
-44 -8 -8 -8 -12 -1 -12 20 0 31 58 17 95 -7 17 -54 45 -76 45 -7 0 -20 -5
-28 -11z"/>
<path d="M176 475 c-3 -8 -13 -15 -23 -15 -13 0 -14 -3 -6 -8 17 -11 -3 -82
-22 -82 -8 0 -15 -4 -15 -10 0 -5 6 -7 14 -4 18 7 41 -77 23 -88 -8 -5 -6 -8
6 -8 10 0 20 -7 23 -15 4 -8 11 -15 16 -15 6 0 5 7 -3 16 -10 13 -10 17 2 26
11 8 11 9 -3 4 -13 -4 -20 3 -27 31 -6 20 -8 40 -5 44 2 4 24 6 49 5 l45 -3 0
43 c0 39 2 42 30 46 24 4 31 0 40 -21 l10 -26 -4 27 c-1 15 2 29 8 32 6 2 5 5
-3 5 -8 1 -20 9 -28 19 -13 16 -14 15 -8 -5 5 -20 2 -23 -19 -23 -20 0 -26 5
-27 23 l0 22 -9 -22 c-5 -13 -18 -23 -28 -23 -26 0 -34 11 -21 27 7 8 8 13 1
13 -5 0 -12 -7 -16 -15z m64 -71 c0 -34 0 -34 -46 -34 -42 0 -45 2 -39 23 4
12 8 29 11 37 3 12 14 15 39 12 32 -4 35 -7 35 -38z"/>
<path d="M305 358 c-45 -26 -85 -93 -85 -143 1 -45 34 -109 71 -135 49 -36
133 -39 179 -8 105 71 109 206 8 281 -42 31 -123 33 -173 5z m172 -16 c91 -65
81 -215 -17 -264 -149 -75 -299 106 -193 233 15 17 41 38 58 45 41 19 116 12
152 -14z"/>
<path d="M362 285 c-34 -32 -27 -69 15 -73 17 -2 37 -10 43 -18 26 -31 -39
-61 -68 -32 -9 9 -12 9 -12 0 0 -7 4 -12 9 -12 5 0 17 -7 25 -16 9 -8 16 -11
16 -6 0 5 9 12 20 15 25 6 36 35 23 56 -6 9 -25 18 -44 21 -28 4 -34 9 -34 30
0 18 6 26 23 28 13 2 30 -2 38 -9 8 -6 17 -9 20 -6 3 3 -5 11 -18 18 -12 6
-25 15 -28 19 -3 4 -16 -3 -28 -15z"/>
<path d="M81 182 c-19 -35 -13 -77 14 -102 20 -19 32 -22 69 -18 25 3 43 2 40
-3 -3 -5 0 -9 5 -9 6 0 9 10 7 23 -2 15 -11 23 -27 24 -13 1 -18 0 -11 -3 25
-11 11 -24 -26 -24 -25 0 -45 7 -55 18 -20 22 -22 73 -5 90 6 6 9 14 6 18 -4
3 -11 -3 -17 -14z"/>
</g>
</svg>
