<?xml version="1.0" standalone="no"?>
<!DOCTYPE svg PUBLIC "-//W3C//DTD SVG 20010904//EN"
 "http://www.w3.org/TR/2001/REC-SVG-20010904/DTD/svg10.dtd">
<svg version="1.0" xmlns="http://www.w3.org/2000/svg"
 width="62.000000pt" height="65.000000pt" viewBox="0 0 62.000000 65.000000"
 preserveAspectRatio="xMidYMid meet">

<g transform="translate(0.000000,65.000000) scale(0.100000,-0.100000)"
fill="#000000" stroke="none">
<path d="M222 594 c-87 -44 -116 -150 -69 -246 15 -29 53 -80 86 -112 l59 -59
41 32 c56 44 112 125 127 181 20 78 -4 145 -69 194 -37 27 -130 33 -175 10z
m157 -14 c83 -42 107 -144 56 -238 -15 -27 -51 -73 -81 -103 l-54 -53 -58 59
c-128 132 -136 256 -23 332 43 29 108 30 160 3z"/>
<path d="M189 484 c-19 -42 -19 -47 -5 -63 9 -10 16 -34 16 -54 l0 -37 100 0
100 0 0 37 c0 20 7 44 16 54 15 16 15 22 -1 63 l-18 46 -94 0 -94 0 -20 -46z
m72 9 l1 -28 7 25 c10 35 60 42 62 8 l2 -23 4 23 c7 33 50 30 64 -5 18 -47 16
-68 -7 -71 -11 -2 -26 4 -33 12 -11 14 -15 14 -28 1 -19 -19 -48 -19 -67 1 -9
8 -16 11 -16 5 0 -15 -39 -24 -55 -11 -22 18 11 90 42 90 18 0 23 -6 24 -27z
m19 -114 c0 -38 -1 -39 -35 -39 -33 0 -35 2 -35 33 0 24 6 35 23 43 34 16 47
6 47 -37z m110 -6 c0 -33 0 -33 -50 -33 l-50 0 0 35 c0 28 4 35 19 35 11 0 22
4 25 9 4 5 17 4 31 -2 19 -9 25 -20 25 -44z"/>
<path d="M133 298 c-17 -20 -74 -160 -68 -166 3 -3 32 6 66 21 l60 26 55 -27
54 -26 54 26 55 27 61 -25 c34 -14 64 -23 67 -21 7 7 -58 155 -73 168 -10 8
-14 8 -14 0 0 -6 4 -11 9 -11 10 0 64 -130 57 -137 -11 -11 -98 34 -112 57
l-14 25 6 -26 c5 -22 0 -28 -45 -49 l-51 -23 -50 23 c-44 21 -49 26 -44 49 l6
26 -14 -24 c-12 -23 -103 -70 -114 -59 -6 7 47 131 60 140 6 4 8 10 5 13 -4 3
-11 0 -16 -7z"/>
</g>
</svg>
