<?xml version="1.0" standalone="no"?>
<!DOCTYPE svg PUBLIC "-//W3C//DTD SVG 20010904//EN"
 "http://www.w3.org/TR/2001/REC-SVG-20010904/DTD/svg10.dtd">
<svg version="1.0" xmlns="http://www.w3.org/2000/svg"
 width="57.000000pt" height="56.000000pt" viewBox="0 0 57.000000 56.000000"
 preserveAspectRatio="xMidYMid meet">

<g transform="translate(0.000000,56.000000) scale(0.100000,-0.100000)"
fill="#000000" stroke="none">
<path d="M42 538 c-7 -7 -12 -22 -12 -35 0 -18 5 -23 23 -22 17 1 18 2 4 6
-29 8 -18 48 13 48 l25 0 5 -205 5 -205 25 -2 c25 -3 25 -3 3 7 -23 9 -23 11
-23 210 l0 200 138 0 c94 0 142 -4 150 -12 8 -8 12 -46 12 -104 0 -81 -2 -92
-17 -90 -15 1 -19 -12 -26 -74 -4 -41 -5 -87 -3 -102 5 -26 3 -27 -42 -31 -46
-3 -46 -3 11 -5 31 -1 57 -6 57 -12 0 -5 -4 -10 -10 -10 -5 0 -10 -8 -9 -17 0
-11 3 -13 6 -5 7 17 119 17 126 0 4 -8 6 -7 6 4 1 9 -4 18 -10 20 -7 2 -7 17
0 48 19 80 14 104 -34 176 -42 62 -45 71 -45 133 0 39 -5 72 -12 79 -17 17
-349 17 -366 0z m423 -230 c38 -57 41 -79 23 -157 -11 -50 -12 -51 -48 -51
-31 0 -39 5 -54 33 -15 27 -17 44 -9 112 9 88 25 102 33 28 4 -35 10 -49 23
-51 22 -4 23 44 2 72 -14 18 -21 66 -10 66 2 0 20 -24 40 -52z m-25 -59 c0
-10 -4 -19 -10 -19 -5 0 -10 12 -10 26 0 14 4 23 10 19 6 -3 10 -15 10 -26z"/>
<path d="M233 453 c15 -2 39 -2 55 0 15 2 2 4 -28 4 -30 0 -43 -2 -27 -4z"/>
<path d="M218 383 c29 -2 74 -2 100 0 26 2 2 3 -53 3 -55 0 -76 -1 -47 -3z"/>
<path d="M190 340 c0 -5 5 -10 11 -10 5 0 7 5 4 10 -3 6 -8 10 -11 10 -2 0 -4
-4 -4 -10z"/>
<path d="M285 340 l-40 -7 43 -2 c23 0 42 4 42 9 0 6 -1 9 -2 9 -2 -1 -21 -5
-43 -9z"/>
<path d="M193 293 c15 -2 37 -2 50 0 12 2 0 4 -28 4 -27 0 -38 -2 -22 -4z"/>
<path d="M190 230 c-24 -24 -25 -39 -6 -65 8 -12 12 -33 9 -55 -5 -36 -5 -36
32 -36 37 0 37 0 32 36 -3 22 1 43 9 55 8 10 14 25 14 32 0 18 -37 53 -55 53
-8 0 -24 -9 -35 -20z m73 -22 c10 -39 -16 -65 -53 -53 -22 7 -30 26 -23 53 9
36 67 36 76 0z m-15 -98 c2 -21 -1 -25 -23 -25 -19 0 -25 5 -25 21 0 42 43 46
48 4z"/>
</g>
</svg>
