<?xml version="1.0" standalone="no"?>
<!DOCTYPE svg PUBLIC "-//W3C//DTD SVG 20010904//EN"
 "http://www.w3.org/TR/2001/REC-SVG-20010904/DTD/svg10.dtd">
<svg version="1.0" xmlns="http://www.w3.org/2000/svg"
 width="53.000000pt" height="52.000000pt" viewBox="0 0 53.000000 52.000000"
 preserveAspectRatio="xMidYMid meet">

<g transform="translate(0.000000,52.000000) scale(0.100000,-0.100000)"
fill="#000000" stroke="none">
<path d="M82 438 l-42 -32 2 -170 3 -171 133 0 132 -1 -130 3 -130 4 2 167 3
167 70 0 c49 0 70 -4 71 -12 1 -7 2 -17 3 -22 0 -5 30 -9 65 -9 59 0 65 2 68
22 3 19 10 21 67 24 43 2 67 -1 72 -9 13 -21 11 -310 -2 -325 -7 -9 -8 -14 -1
-14 18 0 22 31 22 185 l0 154 -44 35 -43 36 -139 0 -139 -1 -43 -31z m128 2
c-9 -17 -21 -20 -71 -20 l-61 0 23 20 c16 13 39 19 72 20 45 0 47 -1 37 -20z
m90 16 c0 -2 3 -11 6 -20 5 -13 -3 -16 -45 -16 -49 0 -51 1 -41 20 8 14 21 20
45 20 19 0 35 -2 35 -4z m121 -16 l24 -19 -55 -1 c-51 0 -80 11 -80 32 0 17
88 8 111 -12z m-101 -48 c0 -16 -8 -19 -55 -18 -46 0 -55 3 -55 18 0 15 9 18
55 18 47 0 55 -3 55 -18z"/>
<path d="M195 308 c-78 -61 -59 -181 34 -209 130 -39 213 125 106 209 -37 30
-103 30 -140 0z m138 -8 c59 -47 51 -139 -15 -180 -111 -70 -225 98 -121 180
35 27 101 27 136 0z"/>
<path d="M194 220 c0 -22 4 -40 8 -40 4 0 8 18 8 40 0 22 -4 40 -8 40 -5 0 -8
-18 -8 -40z"/>
<path d="M223 215 c0 -27 2 -38 4 -22 2 15 2 37 0 50 -2 12 -4 0 -4 -28z"/>
<path d="M263 215 c0 -27 2 -38 4 -22 2 15 2 37 0 50 -2 12 -4 0 -4 -28z"/>
<path d="M293 215 c0 -27 2 -38 4 -22 2 15 2 37 0 50 -2 12 -4 0 -4 -28z"/>
<path d="M333 210 c0 -30 2 -43 4 -27 2 15 2 39 0 55 -2 15 -4 2 -4 -28z"/>
<path d="M399 112 c43 -62 4 -96 -52 -46 l-32 29 32 -34 c25 -27 36 -32 57
-27 36 9 36 54 -1 87 l-27 24 23 -33z"/>
</g>
</svg>
