<?xml version="1.0" standalone="no"?>
<!DOCTYPE svg PUBLIC "-//W3C//DTD SVG 20010904//EN"
 "http://www.w3.org/TR/2001/REC-SVG-20010904/DTD/svg10.dtd">
<svg version="1.0" xmlns="http://www.w3.org/2000/svg"
 width="58.000000pt" height="50.000000pt" viewBox="0 0 58.000000 50.000000"
 preserveAspectRatio="xMidYMid meet">

<g transform="translate(0.000000,50.000000) scale(0.100000,-0.100000)"
fill="#000000" stroke="none">
<path d="M235 424 c-27 -13 -77 -35 -110 -49 -36 -16 -55 -29 -47 -34 8 -4 12
-55 15 -156 l3 -150 2 158 2 158 86 39 c47 22 92 40 100 40 7 0 52 -18 99 -39
l85 -40 2 -158 2 -158 3 153 c3 136 5 152 21 153 15 1 -66 42 -173 89 -39 16
-41 16 -90 -6z"/>
<path d="M164 267 c-2 -7 -3 -62 -1 -123 l3 -109 2 118 2 117 115 0 114 0 4
-115 3 -115 -1 117 0 118 -118 3 c-91 2 -119 0 -123 -11z"/>
<path d="M217 184 c-4 -4 -7 -38 -7 -76 l0 -68 75 0 76 0 -3 73 -3 72 -65 3
c-36 2 -69 0 -73 -4z m33 -23 c0 -15 7 -18 35 -18 27 1 35 6 35 19 0 10 7 18
15 18 12 0 15 -14 15 -65 l0 -65 -65 0 -65 0 0 58 c0 32 3 62 7 65 12 13 23 7
23 -12z m60 10 c0 -5 -6 -11 -12 -14 -18 -6 -39 3 -32 14 7 12 44 12 44 0z"/>
<path d="M308 73 c7 -3 16 -2 19 1 4 3 -2 6 -13 5 -11 0 -14 -3 -6 -6z"/>
</g>
</svg>
