<?xml version="1.0" standalone="no"?>
<!DOCTYPE svg PUBLIC "-//W3C//DTD SVG 20010904//EN"
 "http://www.w3.org/TR/2001/REC-SVG-20010904/DTD/svg10.dtd">
<svg version="1.0" xmlns="http://www.w3.org/2000/svg"
 width="56.000000pt" height="57.000000pt" viewBox="0 0 56.000000 57.000000"
 preserveAspectRatio="xMidYMid meet">

<g transform="translate(0.000000,57.000000) scale(0.100000,-0.100000)"
fill="#000000" stroke="none">
<path d="M398 463 l-60 -58 -149 52 -149 52 0 -28 c0 -24 11 -36 73 -79 39
-27 83 -62 97 -76 l24 -27 -36 -35 -35 -36 -62 31 -61 31 0 -28 c0 -18 10 -38
28 -55 41 -39 52 -33 13 7 -18 19 -32 39 -30 44 4 12 99 -26 99 -39 0 -4 -11
-25 -25 -45 -27 -40 -33 -84 -12 -84 7 0 35 14 61 31 27 16 49 29 51 27 6 -6
45 -88 45 -93 0 -14 -29 -2 -50 20 -13 14 -28 25 -34 25 -5 0 3 -13 19 -30 19
-19 39 -30 57 -30 l28 0 -31 61 -31 62 36 35 35 36 27 -24 c14 -14 49 -58 77
-97 43 -62 55 -73 80 -73 19 0 27 4 24 13 -3 6 -26 74 -52 151 l-47 138 55 57
c60 62 69 77 55 104 -17 33 -56 20 -120 -40z m113 35 c3 -31 -6 -46 -58 -100
l-56 -57 43 -128 c24 -70 47 -136 52 -145 7 -14 4 -18 -12 -18 -13 0 -32 17
-53 47 -17 26 -52 69 -75 95 -28 29 -41 52 -37 60 5 7 -19 -12 -51 -43 -57
-54 -130 -109 -146 -109 -5 0 -8 8 -8 18 0 25 45 86 111 151 30 29 46 50 35
47 -13 -5 -32 6 -65 37 -25 23 -67 56 -93 72 -28 17 -48 37 -48 48 0 9 4 17 9
17 5 0 66 -20 135 -45 70 -25 135 -45 144 -45 10 0 42 25 72 55 52 53 98 72
101 43z"/>
</g>
</svg>
